<svg width="18" height="30" viewBox="0 0 18 30" fill="none" xmlns="http://www.w3.org/2000/svg">
<path fill-rule="evenodd" clip-rule="evenodd" d="M18 0C17.5407 0.0369937 17.1837 0.422999 17.1837 0.895833V2.98958C17.1837 3.46242 17.5407 3.84842 18 3.88542V0ZM9.35132 1.15625C7.4526 1.15625 5.90011 2.72131 5.90011 4.63542V8.20833C6.1438 8.11535 6.41151 8.0682 6.67509 8.07292C6.94791 8.06545 7.20931 8.11283 7.46039 8.20833V4.63542C7.46039 3.5647 8.28921 2.72917 9.35132 2.72917H16.9254V1.15625H9.35132ZM6.68542 8.38542C5.60353 8.38542 4.73249 9.26352 4.73249 10.3542V12.7812C2.95311 13.3244 1.4893 14.5881 0.671642 16.2396H12.6992C11.883 14.5909 10.4135 13.326 8.63835 12.7812V10.3542C8.63835 9.26352 7.76731 8.38542 6.68542 8.38542ZM0.743972 16.6354C0.331074 16.6354 0 16.9692 0 17.3854C0 17.8017 0.331074 18.1458 0.743972 18.1458H12.6269C13.0398 18.1458 13.3708 17.8017 13.3708 17.3854C13.3708 16.9692 13.0398 16.6354 12.6269 16.6354H0.743972ZM1.0023 19.3229C0.822582 19.8392 0.198321 20.2994 0.227325 20.8229C0.228945 21.2583 0.571933 21.625 1.0023 21.625C1.43266 21.625 1.77564 21.2583 1.77727 20.8229C1.80627 20.2994 1.18201 19.8392 1.0023 19.3229ZM4.78416 19.3229C4.60444 19.8392 3.98018 20.2994 4.00918 20.8229C4.01081 21.2583 4.35379 21.625 4.78416 21.625C5.21452 21.625 5.56783 21.2583 5.56946 20.8229C5.59847 20.2994 4.96387 19.8392 4.78416 19.3229ZM8.57635 19.3229C8.39664 19.8392 7.77237 20.2994 7.80138 20.8229C7.803 21.2583 8.14599 21.625 8.57635 21.625C9.00671 21.625 9.34969 21.2583 9.35132 20.8229C9.38033 20.2994 8.75606 19.8392 8.57635 19.3229ZM12.3685 19.3229C12.1888 19.8392 11.5542 20.2994 11.5832 20.8229C11.5849 21.2583 11.9382 21.625 12.3685 21.625C12.7989 21.625 13.1419 21.2583 13.1435 20.8229C13.1725 20.2994 12.5483 19.8392 12.3685 19.3229ZM1.0023 23.5104C0.822582 24.0267 0.198321 24.4869 0.227325 25.0104C0.228945 25.4458 0.571933 25.8125 1.0023 25.8125C1.43266 25.8125 1.77564 25.4458 1.77727 25.0104C1.80627 24.4869 1.18201 24.0267 1.0023 23.5104ZM4.78416 23.5104C4.60444 24.0267 3.98018 24.4869 4.00918 25.0104C4.01081 25.4458 4.35379 25.8125 4.78416 25.8125C5.21452 25.8125 5.56783 25.4458 5.56946 25.0104C5.59847 24.4869 4.96387 24.0267 4.78416 23.5104ZM8.57635 23.5104C8.39664 24.0267 7.77237 24.4869 7.80138 25.0104C7.803 25.4458 8.14599 25.8125 8.57635 25.8125C9.00671 25.8125 9.34969 25.4458 9.35132 25.0104C9.38033 24.4869 8.75606 24.0267 8.57635 23.5104ZM12.3685 23.5104C12.1888 24.0267 11.5542 24.4869 11.5832 25.0104C11.5849 25.4458 11.9382 25.8125 12.3685 25.8125C12.7989 25.8125 13.1419 25.4458 13.1435 25.0104C13.1725 24.4869 12.5483 24.0267 12.3685 23.5104ZM1.0023 27.6979C0.822582 28.2142 0.198321 28.6744 0.227325 29.1979C0.228945 29.6333 0.571933 30 1.0023 30C1.43266 30 1.77564 29.6333 1.77727 29.1979C1.80627 28.6744 1.18201 28.2142 1.0023 27.6979ZM4.78416 27.6979C4.60444 28.2142 3.98018 28.6744 4.00918 29.1979C4.01081 29.6333 4.35379 30 4.78416 30C5.21452 30 5.56783 29.6333 5.56946 29.1979C5.59847 28.6744 4.96387 28.2142 4.78416 27.6979ZM8.57635 27.6979C8.39664 28.2142 7.77237 28.6744 7.80138 29.1979C7.803 29.6333 8.14599 30 8.57635 30C9.00671 30 9.34969 29.6333 9.35132 29.1979C9.38033 28.6744 8.75606 28.2142 8.57635 27.6979ZM12.3685 27.6979C12.1888 28.2142 11.5542 28.6744 11.5832 29.1979C11.5849 29.6333 11.9382 30 12.3685 30C12.7989 30 13.1419 29.6333 13.1435 29.1979C13.1725 28.6744 12.5483 28.2142 12.3685 27.6979Z" fill="#232323"/>
</svg>
