<svg width="28" height="20" viewBox="0 0 28 20" fill="none" xmlns="http://www.w3.org/2000/svg">
<path d="M2 19.2045H26C26.825 19.2045 27.5 18.5142 27.5 17.6705C27.5 16.8267 26.825 16.1364 26 16.1364H2C1.175 16.1364 0.5 16.8267 0.5 17.6705C0.5 18.5142 1.175 19.2045 2 19.2045ZM2 11.5341H26C26.825 11.5341 27.5 10.8438 27.5 10C27.5 9.15625 26.825 8.46591 26 8.46591H2C1.175 8.46591 0.5 9.15625 0.5 10C0.5 10.8438 1.175 11.5341 2 11.5341ZM0.5 2.32955C0.5 3.1733 1.175 3.86364 2 3.86364H26C26.825 3.86364 27.5 3.1733 27.5 2.32955C27.5 1.4858 26.825 0.795456 26 0.795456H2C1.175 0.795456 0.5 1.4858 0.5 2.32955Z" fill="white"/>
</svg>
