<svg width="26" height="18" viewBox="0 0 26 18" fill="none" xmlns="http://www.w3.org/2000/svg">
<path fill-rule="evenodd" clip-rule="evenodd" d="M13 5.62522C13 5.62522 10.6309 7.34138 6.60588 5.62522C6.60588 5.62522 3.23549 7.6449 0.400024 5.46392L2.84989 0H23.1502L25.6 5.46392C22.7646 7.6449 19.3942 5.62522 19.3942 5.62522C15.3692 7.34138 13 5.62522 13 5.62522ZM23.3347 7.11419V18H10.4086V12.6664C10.4086 11.5224 9.43013 10.5865 8.23403 10.5865C7.03794 10.5865 6.05911 11.5224 6.05911 12.6664V18H2.66534V7.11389C3.32371 7.19708 4.00608 7.16816 4.69874 7.03429C5.31315 6.91562 6.05007 6.68217 6.65077 6.38312C8.16389 6.97406 9.82758 7.25611 11.4461 6.94126C11.9221 6.84854 12.5137 6.66995 13 6.42457C13.4863 6.66995 14.078 6.84854 14.554 6.94126C16.1725 7.25611 17.8362 6.97406 19.3493 6.38312C19.95 6.68217 20.6869 6.91562 21.3013 7.03429C21.994 7.16816 22.6763 7.19708 23.3347 7.11419ZM15.3158 10.1064H20.4833V14.6577H15.3158V10.1064ZM5.77575 1.38939L5.06938 4.8384L4.37205 4.70841L5.07842 1.25939L5.77575 1.38939ZM16.8552 1.25939L17.5615 4.70841L16.8642 4.8384L16.1578 1.38939L16.8552 1.25939ZM20.9216 1.25939L21.628 4.70841L20.9307 4.8384L20.2243 1.38939L20.9216 1.25939ZM12.9897 4.77341V1.32439H13.7011V4.77341H12.9897ZM9.84223 1.38939L9.13586 4.8384L8.43853 4.70841L9.1449 1.25939L9.84223 1.38939Z" fill="#232323"/>
</svg>
