<svg width="22" height="22" viewBox="0 0 22 22" fill="none" xmlns="http://www.w3.org/2000/svg">
<path d="M19.435 14.8033L16.4717 14.465C15.76 14.3833 15.06 14.6283 14.5584 15.13L12.4117 17.2767C9.11005 15.5967 6.40338 12.9017 4.72338 9.58832L6.88171 7.42999C7.38338 6.92832 7.62838 6.22832 7.54671 5.51666L7.20838 2.57666C7.06838 1.39832 6.07671 0.511658 4.88671 0.511658H2.86838C1.55005 0.511658 0.453381 1.60832 0.535047 2.92666C1.15338 12.89 9.12171 20.8467 19.0734 21.465C20.3917 21.5467 21.4884 20.45 21.4884 19.1317V17.1133C21.5 15.935 20.6134 14.9433 19.435 14.8033Z" fill="black"/>
</svg>
