<svg width="26" height="22" viewBox="0 0 26 22" fill="none" xmlns="http://www.w3.org/2000/svg">
<path d="M15.0118 3.27953C15.0148 3.32797 15.033 3.37337 15.0723 3.40667C15.2812 3.59435 15.4901 3.79111 15.6929 3.9909L15.8654 4.16647C15.932 4.23609 15.9986 4.30269 16.0652 4.37534C16.1409 4.45404 16.2136 4.53275 16.2892 4.61448C16.6797 5.0413 17.0642 5.49839 17.4365 5.98575L17.5667 6.15527C18.2901 7.11788 18.9803 8.18947 19.6493 9.39425C21.6986 8.59812 23.1274 7.13907 23.8933 5.06249C23.0094 4.47221 22.0074 3.73662 20.8722 2.84969L20.7027 2.7165C20.4333 2.5046 20.1578 2.28665 19.8763 2.05659C19.5403 1.78718 19.1983 1.50566 18.8471 1.21809L18.8441 1.21506L18.6413 1.04857C18.4203 0.86392 18.1933 0.673214 17.9632 0.482508C17.8936 0.424993 17.7907 0.42802 17.7241 0.491589L15.0602 3.15542C15.0269 3.18569 15.0088 3.2311 15.0118 3.27953Z" fill="#232323"/>
<path d="M5.16376 2.19575L5.17587 2.18667C5.23036 2.14429 5.28182 2.10191 5.33631 2.05954C5.33934 2.05651 5.34539 2.05348 5.34842 2.05045C5.39988 2.00808 5.45134 1.96872 5.50583 1.92634C5.51491 1.92029 5.52096 1.91424 5.53004 1.90818C5.58453 1.8658 5.63902 1.8204 5.69048 1.77802C5.69956 1.76894 5.70864 1.76288 5.72075 1.7538C5.77221 1.71142 5.8267 1.66904 5.87816 1.62666C5.88118 1.62364 5.88421 1.62061 5.88724 1.61758C5.94173 1.57218 5.99924 1.52677 6.05373 1.48136C6.06584 1.47228 6.07492 1.4632 6.08703 1.45412C6.14151 1.40871 6.19903 1.36331 6.25351 1.3179C6.25957 1.31487 6.2626 1.30882 6.26865 1.30579C6.32011 1.26341 6.3746 1.22103 6.42606 1.17563C6.43514 1.16655 6.44725 1.15747 6.45633 1.14838C6.51082 1.10298 6.56833 1.05757 6.62282 1.01217C6.62585 1.00914 6.6319 1.00611 6.63493 1.00308L6.28076 0.648915C6.11427 0.482425 5.84183 0.482425 5.67231 0.648915L4.94884 1.37239C4.78235 1.53888 4.78235 1.81132 4.94884 1.98083L5.16376 2.19575Z" fill="#232323"/>
<path d="M19.5388 1.15512C19.5479 1.1642 19.56 1.17328 19.5691 1.18237C19.6205 1.22475 19.675 1.27015 19.7265 1.31253C19.7325 1.31556 19.7356 1.32161 19.7416 1.32464C19.7961 1.37005 19.8536 1.41545 19.9081 1.46086C19.9172 1.46994 19.9293 1.47902 19.9414 1.4881C19.9959 1.53351 20.0534 1.57891 20.1079 1.62432C20.1109 1.62735 20.1139 1.63037 20.117 1.6334C20.1715 1.67578 20.2229 1.71816 20.2744 1.76054C20.2835 1.76962 20.2925 1.77567 20.3047 1.78476C20.3591 1.82714 20.4136 1.87254 20.4651 1.91492C20.4742 1.92097 20.4802 1.92703 20.4893 1.93308C20.5408 1.97546 20.5922 2.01784 20.6467 2.05719C20.6497 2.06022 20.6558 2.06325 20.6588 2.06627C20.7133 2.10865 20.7648 2.15103 20.8193 2.19341L20.8314 2.20249L21.0433 1.9906C21.2098 1.82411 21.2098 1.55167 21.0433 1.38215L20.3198 0.658681C20.1533 0.492191 19.8809 0.492191 19.7113 0.658681L19.3572 1.01285C19.3602 1.01588 19.3663 1.0189 19.3693 1.02193C19.4298 1.06431 19.4843 1.10972 19.5388 1.15512Z" fill="#232323"/>
<path d="M5.3335 11.3525C5.5908 10.8198 5.85113 10.3082 6.11448 9.82083C5.07317 9.40612 4.17715 8.83097 3.44762 8.10145C2.6969 7.35073 2.1036 6.41839 1.68889 5.33167C1.13796 5.68583 0.635459 5.98249 0.181396 6.2186C0.916978 8.58881 2.64847 10.3142 5.3335 11.3525Z" fill="#232323"/>
<path d="M19.8826 9.82083C20.1459 10.3082 20.4063 10.8198 20.6636 11.3525C23.3456 10.3142 25.0801 8.58578 25.8157 6.2186C25.3616 5.98249 24.8591 5.68886 24.3082 5.33167C23.8935 6.41839 23.3001 7.3477 22.5494 8.10145C21.8199 8.83097 20.9239 9.40612 19.8826 9.82083Z" fill="#232323"/>
<path d="M14.6724 9.04651L13.3435 10.3754L24.4105 21.4424C24.577 21.6089 24.8495 21.6089 25.019 21.4424L25.7424 20.7189C25.9089 20.5525 25.9089 20.28 25.7424 20.1135L14.6724 9.04651Z" fill="#232323"/>
<path d="M10.295 4.69944C10.2798 4.71457 10.2647 4.73273 10.2465 4.7509C10.2011 4.79933 10.1587 4.84474 10.1133 4.89317C10.0921 4.91436 10.074 4.93858 10.0528 4.95977C10.0134 5.00517 9.97107 5.04755 9.93171 5.09296C9.91052 5.11415 9.89236 5.13836 9.87117 5.15955C9.82577 5.21101 9.77733 5.2655 9.73193 5.31696C9.71982 5.3321 9.70771 5.34723 9.69258 5.35934C9.63506 5.42594 9.57452 5.49556 9.517 5.56518C9.50187 5.58335 9.48673 5.60151 9.47462 5.61664C9.43225 5.6681 9.38684 5.72259 9.34446 5.77405C9.32327 5.79827 9.30511 5.82249 9.28392 5.8467C9.24457 5.89514 9.20521 5.94357 9.16586 5.992C9.14467 6.01622 9.12651 6.04346 9.10532 6.06768C9.09321 6.07979 9.08413 6.09492 9.07202 6.11006L11.3181 8.35616L12.647 7.02727L10.301 4.68127C10.304 4.68733 10.298 4.69338 10.295 4.69944Z" fill="#232323"/>
<path d="M14.6724 8.35897L16.9185 6.11287C16.9094 6.10076 16.8973 6.08563 16.8852 6.07049C16.864 6.04628 16.8459 6.01903 16.8247 5.99482C16.7853 5.94638 16.746 5.89795 16.7066 5.84952C16.6854 5.8253 16.6673 5.80108 16.6461 5.77687C16.6037 5.72238 16.5583 5.67092 16.5159 5.61946C16.5008 5.60129 16.4856 5.58313 16.4735 5.568C16.416 5.49837 16.3555 5.42875 16.298 5.36215C16.2859 5.34702 16.2737 5.33188 16.2586 5.31978C16.2132 5.26529 16.1648 5.21383 16.1194 5.16237C16.0982 5.14118 16.08 5.11696 16.0588 5.09577C16.0195 5.05036 15.9771 5.00496 15.9377 4.96258C15.9165 4.94139 15.8984 4.91717 15.8772 4.89598C15.8318 4.84755 15.7894 4.80214 15.744 4.75371C15.7289 4.73858 15.7137 4.72041 15.6956 4.70225C15.6895 4.6962 15.6865 4.69317 15.6804 4.68711L13.3344 7.03311L12.9984 7.37214L11.6695 8.70103L11.3275 9.04612L0.257436 20.1131C0.0909459 20.2796 0.0909459 20.5521 0.257436 20.7186L0.980909 21.442C1.1474 21.6085 1.41984 21.6085 1.58935 21.442L12.6564 10.375L12.9984 10.0299L14.3273 8.70103L14.6724 8.35897Z" fill="#232323"/>
<path d="M6.34832 9.39151C7.01731 8.18673 7.70748 7.11514 8.43095 6.15253L8.56112 5.98301C8.93345 5.49868 9.31789 5.03856 9.70838 4.61174C9.78103 4.53001 9.85671 4.45131 9.93239 4.37261C9.99898 4.30298 10.0656 4.23336 10.1322 4.16374L10.3047 3.98817C10.5075 3.78535 10.7164 3.59162 10.9253 3.40394C10.9616 3.37064 10.9828 3.32523 10.9858 3.2768C10.9858 3.22837 10.9677 3.18296 10.9344 3.14664L8.27052 0.4828C8.20695 0.419231 8.101 0.416204 8.03138 0.473718C7.80435 0.664425 7.57732 0.855131 7.35331 1.03978L7.1505 1.20627L7.14747 1.2093C6.79633 1.4999 6.45427 1.77839 6.11826 2.0478C5.83674 2.27483 5.55825 2.49581 5.29187 2.70771L5.12235 2.8409C3.98719 3.72784 2.98523 4.46342 2.10132 5.0537C2.87323 7.13633 4.29898 8.59539 6.34832 9.39151Z" fill="#232323"/>
</svg>
