<svg width="22" height="24" viewBox="0 0 22 24" fill="none" xmlns="http://www.w3.org/2000/svg">
<path d="M20.9365 3.97472H1.06249C0.751794 3.97472 0.5 4.22651 0.5 4.53721V23.0109C0.5 23.3174 0.744164 23.5667 1.04845 23.5734H20.9511C21.2551 23.5661 21.499 23.3164 21.499 23.0109V4.53721C21.499 4.22651 21.2469 3.97472 20.9365 3.97472ZM10.9996 21.1238C6.94042 21.1238 3.65002 17.8334 3.65002 13.7742C3.65002 9.715 6.94042 6.42429 10.9996 6.42429C15.0589 6.42429 18.3496 9.7147 18.3496 13.7742C18.3493 17.8334 15.0589 21.1238 10.9996 21.1238Z" fill="#232323"/>
<path d="M0.5 0.426636V3.45976H15.3323V0.426636H0.5ZM2.4353 2.55879C2.0953 2.55879 1.82001 2.28319 1.82001 1.9432C1.82001 1.6032 2.0953 1.3279 2.4353 1.3279C2.7753 1.3279 3.0509 1.6032 3.0509 1.9432C3.0509 2.28319 2.77499 2.55879 2.4353 2.55879ZM4.49329 2.55879C4.1533 2.55879 3.878 2.28319 3.878 1.9432C3.878 1.6032 4.1533 1.3279 4.49329 1.3279C4.83329 1.3279 5.10889 1.6032 5.10889 1.9432C5.10889 2.28319 4.8336 2.55879 4.49329 2.55879Z" fill="#232323"/>
<path d="M21.5 0.426636H15.7383V3.45976H21.5V0.426636Z" fill="#232323"/>
<path d="M6.97009 14.8079C7.52434 14.8079 8.0145 14.5341 8.31329 14.1148C8.61209 14.5341 9.10224 14.8079 9.65649 14.8079C10.2107 14.8079 10.7009 14.5341 10.9991 14.1148C11.2979 14.5341 11.7877 14.8079 12.3423 14.8079C12.8969 14.8079 13.3867 14.5341 13.6855 14.1148C13.9843 14.5341 14.4748 14.8079 15.0287 14.8079C15.6025 14.8079 16.1082 14.5134 16.403 14.0687C16.4085 13.9707 16.418 13.8734 16.418 13.7742C16.418 10.7813 13.9922 8.35525 10.9994 8.35525C8.00626 8.35525 5.58049 10.7816 5.58049 13.7742C5.58049 13.8734 5.58995 13.9704 5.59544 14.0684C5.89027 14.5131 6.396 14.8079 6.97009 14.8079Z" fill="#232323"/>
</svg>
